<svg width="40" height="40" viewBox="0 0 40 40" fill="none" xmlns="http://www.w3.org/2000/svg">
<path d="M29.9948 19.82C29.9948 20.4413 29.4739 20.9281 28.8835 20.9281H27.7723L27.7967 26.4582C27.7967 26.5514 27.7897 26.6446 27.7793 26.7378V27.2936C27.7793 28.0565 27.1577 28.6744 26.3903 28.6744H25.8347C25.7965 28.6744 25.7583 28.6744 25.7201 28.671C25.6715 28.6744 25.6229 28.6744 25.5742 28.6744H24.4457H23.6123C22.8448 28.6744 22.2233 28.0565 22.2233 27.2936V26.4651V24.2558C22.2233 23.6448 21.7267 23.1512 21.1121 23.1512H18.8896C18.275 23.1512 17.7784 23.6448 17.7784 24.2558V26.4651V27.2936C17.7784 28.0565 17.1569 28.6744 16.3894 28.6744H15.556H14.4483C14.3962 28.6744 14.3441 28.671 14.292 28.6675C14.2504 28.671 14.2087 28.6744 14.167 28.6744H13.6114C12.844 28.6744 12.2224 28.0565 12.2224 27.2936V23.4273C12.2224 23.3963 12.2224 23.3617 12.2259 23.3307V20.9281H11.1112C10.4862 20.9281 10 20.4448 10 19.82C10 19.5093 10.1042 19.2331 10.3473 18.9915L19.2508 11.2762C19.4939 11.0345 19.7717 11 20.0147 11C20.2578 11 20.5356 11.069 20.744 11.2416L29.6128 18.9915C29.8906 19.2331 30.0295 19.5093 29.9948 19.82Z" fill="#FFF570"/>
</svg>
