<svg width="40" height="40" viewBox="0 0 40 40" fill="none" xmlns="http://www.w3.org/2000/svg">
<path d="M20 20C21.5155 20 22.969 19.4205 24.0406 18.3891C25.1122 17.3576 25.7143 15.9587 25.7143 14.5C25.7143 13.0413 25.1122 11.6424 24.0406 10.6109C22.969 9.57946 21.5155 9 20 9C18.4845 9 17.031 9.57946 15.9594 10.6109C14.8878 11.6424 14.2857 13.0413 14.2857 14.5C14.2857 15.9587 14.8878 17.3576 15.9594 18.3891C17.031 19.4205 18.4845 20 20 20ZM17.9598 22.0625C13.5625 22.0625 10 25.4914 10 29.7238C10 30.4285 10.5938 31 11.3259 31H28.6741C29.4062 31 30 30.4285 30 29.7238C30 25.4914 26.4375 22.0625 22.0402 22.0625H17.9598Z" fill="#FFF570"/>
</svg>
