<svg width="40" height="40" viewBox="0 0 40 40" fill="none" xmlns="http://www.w3.org/2000/svg">
<g clip-path="url(#clip0_8_2385)">
<path d="M20 31C22.9174 31 25.7153 29.8411 27.7782 27.7782C29.8411 25.7153 31 22.9174 31 20C31 17.0826 29.8411 14.2847 27.7782 12.2218C25.7153 10.1589 22.9174 9 20 9C17.0826 9 14.2847 10.1589 12.2218 12.2218C10.1589 14.2847 9 17.0826 9 20C9 22.9174 10.1589 25.7153 12.2218 27.7782C14.2847 29.8411 17.0826 31 20 31ZM22.1785 22.9691L15.9781 25.3539C15.1445 25.6762 14.3238 24.8555 14.6461 24.0219L17.0309 17.8215C17.1727 17.4563 17.4563 17.1727 17.8215 17.0309L24.0219 14.6461C24.8555 14.3238 25.6762 15.1445 25.3539 15.9781L22.9691 22.1785C22.8316 22.5438 22.5438 22.8273 22.1785 22.9691ZM21.375 20C21.375 19.6353 21.2301 19.2856 20.9723 19.0277C20.7144 18.7699 20.3647 18.625 20 18.625C19.6353 18.625 19.2856 18.7699 19.0277 19.0277C18.7699 19.2856 18.625 19.6353 18.625 20C18.625 20.3647 18.7699 20.7144 19.0277 20.9723C19.2856 21.2301 19.6353 21.375 20 21.375C20.3647 21.375 20.7144 21.2301 20.9723 20.9723C21.2301 20.7144 21.375 20.3647 21.375 20Z" fill="#FFF570"/>
</g>
<defs>
<clipPath id="clip0_8_2385">
<rect width="22" height="22" fill="white" transform="translate(9 9)"/>
</clipPath>
</defs>
</svg>
