<svg width="32" height="32" viewBox="0 0 32 32" fill="none" xmlns="http://www.w3.org/2000/svg">
<path d="M12.76 25.0932C12.5067 25.0932 12.2534 24.9999 12.0534 24.7999L3.96004 16.7066C3.57338 16.3199 3.57338 15.6799 3.96004 15.2932L12.0534 7.19991C12.44 6.81325 13.08 6.81325 13.4667 7.19991C13.8534 7.58658 13.8534 8.22658 13.4667 8.61325L6.08004 15.9999L13.4667 23.3866C13.8534 23.7732 13.8534 24.4132 13.4667 24.7999C13.28 24.9999 13.0134 25.0932 12.76 25.0932Z" fill="#292D32"/>
<path d="M27.3333 17H4.89331C4.34664 17 3.89331 16.5467 3.89331 16C3.89331 15.4533 4.34664 15 4.89331 15H27.3333C27.88 15 28.3333 15.4533 28.3333 16C28.3333 16.5467 27.88 17 27.3333 17Z" fill="#292D32"/>
</svg>
