<svg width="21" height="20" viewBox="0 0 21 20" fill="none" xmlns="http://www.w3.org/2000/svg">
<path d="M5.1481 12.087L4.4519 14.686L1.90732 14.7398C1.14686 13.3294 0.715515 11.7156 0.715515 10.0007C0.715515 8.34238 1.11881 6.77858 1.83368 5.40161H1.83423L4.09962 5.81694L5.092 8.06874C4.8843 8.67427 4.77109 9.32429 4.77109 10.0007C4.77117 10.7348 4.90414 11.4381 5.1481 12.087Z" fill="#FBBB00"/>
<path d="M20.5408 8.13232C20.6556 8.73727 20.7155 9.36202 20.7155 10.0005C20.7155 10.7165 20.6402 11.4149 20.4968 12.0885C20.01 14.3809 18.738 16.3826 16.9758 17.7992L16.9753 17.7986L14.1219 17.653L13.7181 15.132C14.8873 14.4463 15.8011 13.3732 16.2825 12.0885H10.935V8.13232H16.3605H20.5408Z" fill="#518EF8"/>
<path d="M16.9769 17.7984L16.9775 17.7989C15.2637 19.1765 13.0867 20.0007 10.7168 20.0007C6.90845 20.0007 3.59735 17.872 1.90826 14.7395L5.14905 12.0867C5.99357 14.3406 8.16783 15.9451 10.7168 15.9451C11.8125 15.9451 12.8389 15.6489 13.7197 15.1318L16.9769 17.7984Z" fill="#28B446"/>
<path d="M17.0983 2.30227L13.8586 4.95456C12.947 4.38477 11.8695 4.05562 10.7151 4.05562C8.10839 4.05562 5.89346 5.73369 5.09125 8.06842L1.83343 5.40129H1.83289C3.49724 2.19238 6.8501 0 10.7151 0C13.1415 0 15.3663 0.864328 17.0983 2.30227Z" fill="#F14336"/>
</svg>
