<svg width="20" height="20" viewBox="0 0 20 20" fill="none" xmlns="http://www.w3.org/2000/svg">
<path d="M9.99998 9.99996C11.0103 9.99996 11.9793 9.61365 12.6937 8.92602C13.4081 8.23838 13.8095 7.30575 13.8095 6.33329C13.8095 5.36083 13.4081 4.4282 12.6937 3.74057C11.9793 3.05293 11.0103 2.66663 9.99998 2.66663C8.98963 2.66663 8.02066 3.05293 7.30624 3.74057C6.59181 4.4282 6.19046 5.36083 6.19046 6.33329C6.19046 7.30575 6.59181 8.23838 7.30624 8.92602C8.02066 9.61365 8.98963 9.99996 9.99998 9.99996ZM8.63986 11.375C5.70831 11.375 3.33331 13.6609 3.33331 16.4825C3.33331 16.9523 3.72915 17.3333 4.21724 17.3333H15.7827C16.2708 17.3333 16.6666 16.9523 16.6666 16.4825C16.6666 13.6609 14.2916 11.375 11.3601 11.375H8.63986Z" fill="black"/>
</svg>
