<svg width="16" height="16" viewBox="0 0 16 16" fill="none" xmlns="http://www.w3.org/2000/svg">
<path d="M10.5903 0.56456L9.17711 1.97776L12.9729 5.77356L14.3861 4.36036C15.1161 3.6304 15.1161 2.44786 14.3861 1.7179L13.2357 0.56456C12.5057 -0.1654 11.3232 -0.1654 10.5932 0.56456H10.5903ZM8.51722 2.63765L1.71107 9.44672C1.40741 9.75039 1.1855 10.127 1.06286 10.5387L0.0292402 14.0513C-0.0437559 14.2995 0.0234005 14.5652 0.204431 14.7462C0.385461 14.9273 0.651167 14.9944 0.896433 14.9243L4.409 13.8907C4.8207 13.7681 5.19736 13.5462 5.50102 13.2425L12.313 6.43344L8.51722 2.63765Z" fill="#DDDDDD"/>
</svg>
