<svg width="40" height="40" viewBox="0 0 40 40" fill="none" xmlns="http://www.w3.org/2000/svg">
<circle cx="20" cy="20" r="20" fill="black"/>
<path d="M28.8146 7.38387C30.9994 7.40636 32.7381 9.2216 32.6665 11.4053L32.2075 25.4119C32.0944 28.8641 27.8764 30.4711 25.4949 27.9693L18.3062 20.4173L11.9158 13.8483C9.50121 11.3662 11.2845 7.20334 14.7471 7.239L28.8146 7.38387Z" fill="white"/>
<path fill-rule="evenodd" clip-rule="evenodd" d="M19.5533 19.2172L26.7485 26.776C28.0715 28.1659 30.4149 27.2731 30.4777 25.3552L30.9367 11.3486C30.9765 10.1355 30.0105 9.127 28.7968 9.1145L14.7293 8.96963C12.8056 8.94982 11.8149 11.2625 13.1563 12.6414L19.5533 19.2172ZM32.6665 11.4053C32.7381 9.2216 30.9994 7.40636 28.8146 7.38387L14.7471 7.239C11.2845 7.20334 9.50121 11.3662 11.9158 13.8483L18.3062 20.4173L25.4949 27.9693C27.8764 30.4711 32.0944 28.8641 32.2075 25.4119L32.6665 11.4053Z" fill="black"/>
<path d="M22.6563 13.9415C24.8411 13.964 26.5798 15.7792 26.5083 17.9629L26.0492 31.9695C25.9361 35.4217 21.7181 37.0287 19.3366 34.5269L12.1479 26.9749L5.75751 20.4059C3.34294 17.9238 5.12628 13.761 8.58886 13.7966L22.6563 13.9415Z" fill="white"/>
<path fill-rule="evenodd" clip-rule="evenodd" d="M13.395 25.7748L20.5902 33.3336C21.9133 34.7235 24.2566 33.8307 24.3194 31.9128L24.7785 17.9063C24.8182 16.6931 23.8523 15.6846 22.6385 15.6721L8.57103 15.5272C6.64738 15.5074 5.65664 17.8201 6.99806 19.1991L13.395 25.7748ZM26.5083 17.9629C26.5798 15.7792 24.8411 13.964 22.6563 13.9415L8.58886 13.7966C5.12628 13.761 3.34294 17.9238 5.75751 20.4059L12.1479 26.9749L19.3366 34.5269C21.7181 37.0287 25.9361 35.4217 26.0492 31.9695L26.5083 17.9629Z" fill="black"/>
</svg>
