<svg width="44" height="31" viewBox="0 0 44 31" fill="none" xmlns="http://www.w3.org/2000/svg">
<mask id="path-1-inside-1_8_4216" fill="white">
<path fill-rule="evenodd" clip-rule="evenodd" d="M21.134 30.5C21.5189 31.1667 22.4811 31.1667 22.866 30.5L25.4641 26L31 26C38.1797 26 44 20.1797 44 13C44 5.82029 38.1797 -8.13822e-06 31 -8.76589e-06L13 -1.03395e-05C5.8203 -1.09672e-05 2.20128e-06 5.82029 1.57361e-06 13C9.45941e-07 20.1797 5.8203 26 13 26L18.5359 26L21.134 30.5Z"/>
</mask>
<path fill-rule="evenodd" clip-rule="evenodd" d="M21.134 30.5C21.5189 31.1667 22.4811 31.1667 22.866 30.5L25.4641 26L31 26C38.1797 26 44 20.1797 44 13C44 5.82029 38.1797 -8.13822e-06 31 -8.76589e-06L13 -1.03395e-05C5.8203 -1.09672e-05 2.20128e-06 5.82029 1.57361e-06 13C9.45941e-07 20.1797 5.8203 26 13 26L18.5359 26L21.134 30.5Z" fill="white"/>
<path d="M22.866 30.5L21.134 29.5L21.134 29.5L22.866 30.5ZM21.134 30.5L19.4019 31.5L19.4019 31.5L21.134 30.5ZM25.4641 26L25.4641 24L24.3094 24L23.7321 25L25.4641 26ZM31 26L31 24L31 26ZM18.5359 26L20.2679 25L19.6906 24L18.5359 24L18.5359 26ZM21.134 29.5C21.5189 28.8333 22.4811 28.8333 22.866 29.5L19.4019 31.5C20.5566 33.5 23.4434 33.5 24.5981 31.5L21.134 29.5ZM23.7321 25L21.134 29.5L24.5981 31.5L27.1962 27L23.7321 25ZM31 24L25.4641 24L25.4641 28L31 28L31 24ZM42 13C42 19.0751 37.0751 24 31 24L31 28C39.2843 28 46 21.2843 46 13L42 13ZM31 1.99999C37.0751 1.99999 42 6.92486 42 13L46 13C46 4.71572 39.2843 -2.00001 31 -2.00001L31 1.99999ZM13 1.99999L31 1.99999L31 -2.00001L13 -2.00001L13 1.99999ZM2 13C2 6.92485 6.92487 1.99999 13 1.99999L13 -2.00001C4.71573 -2.00001 -2 4.71572 -2 13L2 13ZM13 24C6.92487 24 2 19.0751 2 13L-2 13C-2 21.2843 4.71573 28 13 28L13 24ZM18.5359 24L13 24L13 28L18.5359 28L18.5359 24ZM22.866 29.5L20.2679 25L16.8038 27L19.4019 31.5L22.866 29.5Z" fill="#5265FB" mask="url(#path-1-inside-1_8_4216)"/>
</svg>
